<?xml version="1.0" standalone="no"?>
<!DOCTYPE svg PUBLIC "-//W3C//DTD SVG 20010904//EN"
 "http://www.w3.org/TR/2001/REC-SVG-20010904/DTD/svg10.dtd">
<svg version="1.0" xmlns="http://www.w3.org/2000/svg"
 width="640.000000pt" height="640.000000pt" viewBox="0 0 640.000000 640.000000"
 preserveAspectRatio="xMidYMid meet">
<metadata>
Created by potrace 1.14, written by Peter Selinger 2001-2017
</metadata>
<g transform="translate(0.000000,640.000000) scale(0.100000,-0.100000)"
fill="#000000" stroke="none">
<path d="M1561 5049 c-90 -29 -170 -83 -238 -163 -6 -7 -23 -36 -37 -65 -59
-115 -56 -25 -56 -1737 l0 -1571 26 -79 c14 -44 32 -86 40 -95 8 -8 14 -20 14
-25 0 -5 8 -17 18 -26 9 -9 26 -27 37 -39 43 -49 118 -92 210 -121 57 -17 133
-18 1650 -15 l1590 2 57 23 c112 45 197 118 246 209 66 125 62 20 62 1743 0
1393 -2 1569 -16 1624 -17 64 -71 176 -85 176 -5 0 -9 5 -9 11 0 18 -71 76
-135 111 -113 60 -29 58 -1740 57 -1546 0 -1571 0 -1634 -20z"/>
</g>
</svg>
